HIERARCHY
ROOT root
{
	OFFSET 0.000000 0.000000 0.000000
	CHANNELS 6 Xposition Yposition Zposition Zrotation Yrotation Xrotation
	JOINT lhip
	{
		OFFSET 0.058581 -0.082280 -0.017664
		CHANNELS 3 Zrotation Yrotation Xrotation
		JOINT lknee
		{
			OFFSET 0.043451 -0.386469 0.008037
			CHANNELS 3 Zrotation Yrotation Xrotation
			JOINT lankle
			{
				OFFSET -0.014790 -0.426874 -0.037428
				CHANNELS 3 Zrotation Yrotation Xrotation
				JOINT ltoe
				{
					OFFSET 0.041054 -0.060286 0.122042
					CHANNELS 3 Zrotation Yrotation Xrotation
					End Site
					{
						OFFSET 0.000000 0.000000 0.000000
					}
				}
			}
		}
	}
	JOINT rhip
	{
		OFFSET -0.060310 -0.090513 -0.013543
		CHANNELS 3 Zrotation Yrotation Xrotation
		JOINT rknee
		{
			OFFSET -0.043257 -0.383688 -0.004843
			CHANNELS 3 Zrotation Yrotation Xrotation
			JOINT rankle
			{
				OFFSET 0.019056 -0.420046 -0.034562
				CHANNELS 3 Zrotation Yrotation Xrotation
				JOINT rtoe
				{
					OFFSET -0.034840 -0.062106 0.130323
					CHANNELS 3 Zrotation Yrotation Xrotation
					End Site
					{
						OFFSET 0.000000 0.000000 0.000000
					}
				}
			}
		}
	}
	JOINT lowerback
	{
		OFFSET 0.004439 0.124404 -0.038385
		CHANNELS 3 Zrotation Yrotation Xrotation
		JOINT upperback
		{
			OFFSET 0.004488 0.137956 0.026820
			CHANNELS 3 Zrotation Yrotation Xrotation
			JOINT chest
			{
				OFFSET -0.002265 0.056032 0.002855
				CHANNELS 3 Zrotation Yrotation Xrotation
				JOINT lowerneck
				{
					OFFSET -0.013390 0.211636 -0.033468
					CHANNELS 3 Zrotation Yrotation Xrotation
					JOINT upperneck
					{
						OFFSET 0.010113 0.088937 0.050410
						CHANNELS 3 Zrotation Yrotation Xrotation
						End Site
						{
							OFFSET 0.000000 0.000000 0.000000
						}
					}
				}
				JOINT lclavicle
				{
					OFFSET 0.071702 0.114000 -0.018898
					CHANNELS 3 Zrotation Yrotation Xrotation
					JOINT lshoulder
					{
						OFFSET 0.122921 0.045205 -0.019046
						CHANNELS 3 Zrotation Yrotation Xrotation
						JOINT lelbow
						{
							OFFSET 0.255332 -0.015649 -0.022946
							CHANNELS 3 Zrotation Yrotation Xrotation
							JOINT lwrist
							{
								OFFSET 0.265709 0.012698 -0.007375
								CHANNELS 3 Zrotation Yrotation Xrotation
								End Site
								{
									OFFSET 0.000000 0.000000 0.000000
								}
							}
						}
					}
				}
				JOINT rclavicle
				{
					OFFSET -0.082954 0.112472 -0.023707
					CHANNELS 3 Zrotation Yrotation Xrotation
					JOINT rshoulder
					{
						OFFSET -0.113228 0.046853 -0.008472
						CHANNELS 3 Zrotation Yrotation Xrotation
						JOINT relbow
						{
							OFFSET -0.260127 -0.014369 -0.031269
							CHANNELS 3 Zrotation Yrotation Xrotation
							JOINT rwrist
							{
								OFFSET -0.269108 0.006794 -0.006027
								CHANNELS 3 Zrotation Yrotation Xrotation
								End Site
								{
									OFFSET 0.000000 0.000000 0.000000
								}
							}
						}
					}
				}
			}
		}
	}
}
MOTION
Frames: 18
Frame Time: 0.033333
0.036219 0.368489 1.016708 -178.540292 -1.263405 89.677370 4.275274 0.866139 2.989500 -3.628255 -4.053589 -1.546888 2.748393 8.861451 -12.226148 0.000000 -0.000000 0.000000 -4.795343 -2.677805 -0.988743 2.254544 -0.921607 5.296146 7.547822 -2.270372 -0.577964 0.000000 -0.000000 0.000000 -2.327042 1.727849 1.613818 1.443170 -2.305437 5.790932 0.962834 -0.055645 -4.925664 -0.288144 2.309382 -1.114007 2.755885 -0.743842 -0.625205 -20.738007 -3.031122 1.664003 -61.242817 -7.241944 15.651061 4.445579 -41.756228 8.088107 -5.169385 -14.163086 -0.480897 22.416126 9.760630 4.797839 59.828345 8.212661 17.158416 -5.634237 29.710534 4.649437 6.048000 11.594748 -1.156636 
0.036073 0.369671 1.016677 -178.851140 -1.219563 89.657723 4.284938 0.937060 3.088274 -3.618180 -3.964155 -1.433246 2.813187 8.984511 -12.352109 0.000000 -0.000000 0.000000 -4.740847 -2.639062 -1.027959 2.225124 -0.744862 5.468024 7.625839 -2.279568 -0.645625 0.000000 -0.000000 0.000000 -2.346426 1.688538 1.378224 1.550787 -2.434683 6.030529 0.938386 -0.072821 -5.022264 -0.358947 2.472749 -1.069306 2.649303 -0.492880 -0.798970 -20.837903 -3.068700 1.643864 -61.032759 -7.152130 15.756590 4.437815 -40.611472 8.097267 -3.895216 -14.078609 -0.058903 22.656242 9.616526 4.762222 59.794142 8.034377 17.130933 -5.576149 28.866702 4.592622 5.558620 11.512656 -1.087826 
0.035825 0.370858 1.016447 -179.060171 -1.197588 89.641939 4.268097 1.023126 3.239915 -3.592518 -4.192026 -1.460159 2.913762 9.257191 -12.371676 0.000000 -0.000000 0.000000 -4.697036 -2.536180 -0.970492 2.184687 -0.557055 5.501994 7.651156 -2.414954 -0.691366 0.000000 -0.000000 0.000000 -2.433185 1.653994 1.258765 1.674265 -2.554528 6.008100 1.056387 -0.104482 -4.971278 -0.528478 2.677647 -1.014366 2.623153 -0.289509 -1.071169 -20.771247 -3.104841 1.651594 -61.066030 -6.958746 15.988149 3.287494 -38.758755 9.186365 -6.772540 -13.852294 -0.322419 22.740210 9.461853 4.723431 59.837680 7.771745 17.152506 -5.787748 28.015916 4.482940 6.599182 11.286623 -0.921432 
0.035416 0.372184 1.016147 -179.208380 -1.129513 89.740487 4.316854 1.213317 3.062728 -3.614472 -4.269859 -1.108642 2.914946 9.394443 -12.630926 0.000000 -0.000000 0.000000 -4.624716 -2.529667 -1.010797 2.195801 -0.313702 5.485789 7.681915 -2.565956 -0.816382 0.000000 -0.000000 0.000000 -2.422066 1.634786 1.035074 1.846819 -2.741140 6.072547 1.068462 -0.181273 -5.079460 -0.632536 2.817978 -1.228974 2.529603 -0.051722 -1.076324 -20.892453 -3.346065 1.482125 -61.359238 -6.634111 16.285764 2.989146 -35.431225 8.911639 -5.891376 -12.889064 -0.031454 22.897751 9.206610 4.707213 59.765661 7.430069 17.211977 -5.627644 26.938685 4.430843 6.356504 11.165034 -0.483949 
0.035069 0.372839 1.016046 -179.340351 -1.139098 89.751406 4.264675 1.184913 3.120059 -3.618040 -4.259782 -1.104481 2.962871 9.619290 -12.673439 0.000000 -0.000000 0.000000 -4.670314 -2.401341 -0.947285 2.241269 -0.156065 5.409246 7.683326 -2.712624 -0.836216 0.000000 -0.000000 0.000000 -2.385859 1.654322 0.913824 1.851147 -2.813288 6.243987 1.062560 -0.216342 -5.168544 -0.685354 3.009653 -1.357928 2.616288 0.051499 -1.157740 -21.118709 -3.453189 1.431239 -61.456519 -6.661855 16.252875 3.435571 -32.800550 9.157166 -7.497319 -13.231588 1.553717 22.987210 9.178108 4.789489 59.850407 7.201371 17.060169 -5.949720 26.352967 4.340795 6.586797 11.272166 0.124844 
0.034537 0.373503 1.015968 -179.442451 -1.138466 89.806718 4.237365 1.192211 3.015445 -3.667803 -4.335737 -0.897708 3.033773 9.740977 -12.775611 0.000000 -0.000000 0.000000 -4.701590 -2.344534 -1.010068 2.257626 0.085785 5.457229 7.680257 -2.894297 -0.883857 0.000000 -0.000000 0.000000 -2.321392 1.695458 0.785451 1.911292 -2.944758 6.389354 1.033588 -0.223254 -5.298717 -0.793994 2.961005 -1.564057 2.667207 0.127099 -1.195836 -21.352642 -3.661676 1.367303 -61.757585 -6.531046 16.473196 3.983163 -29.688713 9.218338 -8.410112 -12.706215 2.937705 23.036687 9.098881 4.818012 59.893063 6.809229 16.996228 -6.102595 25.505836 4.203078 7.144361 11.435139 0.230654 
0.033975 0.374339 1.015889 -179.642796 -1.128590 89.795558 4.204847 1.287529 3.064602 -3.682662 -4.325464 -0.774572 3.070704 9.910208 -12.904846 0.000000 -0.000000 0.000000 -4.726021 -2.274543 -1.008165 2.270981 0.312639 5.524297 7.694756 -2.998254 -0.936122 0.000000 -0.000000 0.000000 -2.234529 1.708051 0.734678 1.939789 -2.982803 6.459073 0.996325 -0.249473 -5.313807 -0.785243 2.995124 -1.781808 2.649597 0.304578 -1.324227 -21.507065 -3.803887 1.409062 -62.107811 -6.145686 16.555110 4.422531 -27.226112 9.267101 -8.861801 -12.150623 3.893209 23.076629 8.911033 4.868825 59.901470 6.564813 16.910729 -6.341368 24.912615 4.363144 6.797460 11.190060 0.948477 
0.033506 0.375105 1.015779 -179.764179 -1.116312 89.849291 4.178776 1.351663 3.021178 -3.704007 -4.434931 -0.675335 3.048147 10.059606 -12.994127 0.000000 -0.000000 0.000000 -4.714808 -2.191007 -1.034919 2.248403 0.546184 5.538047 7.697607 -3.114905 -1.110747 0.000000 -0.000000 0.000000 -2.096713 1.660933 0.606944 1.928039 -3.045455 6.529164 0.910034 -0.205350 -5.333530 -0.810045 3.036118 -1.989819 2.686948 0.371035 -1.428498 -21.741963 -3.712856 1.462759 -62.227577 -5.788122 16.689754 4.923503 -25.306718 9.722634 -9.490713 -11.953480 4.942506 23.056228 8.786828 4.816301 59.957070 6.188490 16.843822 -6.451854 24.468953 4.421969 6.864022 11.199499 1.082346 
0.033175 0.375762 1.015680 -179.855718 -1.084133 89.891258 4.213272 1.469959 2.890103 -3.767850 -4.459877 -0.420407 3.079311 10.147710 -13.085378 0.000000 -0.000000 0.000000 -4.677536 -2.128081 -1.051135 2.214000 0.729225 5.543742 7.750964 -3.189068 -1.166654 0.000000 -0.000000 0.000000 -2.016181 1.601912 0.522485 1.947808 -3.098306 6.534289 0.881036 -0.186790 -5.333507 -0.826633 2.939470 -2.035923 2.655383 0.518446 -1.605249 -21.732285 -3.471361 1.484795 -62.565431 -5.241489 16.791513 5.238255 -24.318946 9.896293 -9.413043 -11.368766 5.234221 22.968351 8.610689 4.757686 59.891008 5.996217 16.823539 -6.267493 24.086058 4.599162 6.928209 11.037755 1.075553 
0.032352 0.376333 1.015524 -179.976203 -1.097275 89.994678 4.088244 1.424033 2.780680 -3.729118 -4.474076 -0.304315 3.151656 10.270405 -13.131724 0.000000 -0.000000 0.000000 -4.768843 -2.080686 -1.177299 2.246545 0.857574 5.614123 7.780870 -3.259189 -1.225767 0.000000 -0.000000 0.000000 -1.908531 1.615016 0.402264 1.970337 -3.078789 6.425290 0.842073 -0.187822 -5.176719 -0.858339 2.815393 -2.194867 2.579068 0.507455 -1.825140 -21.759842 -3.048058 1.561162 -62.801517 -4.650009 16.808122 5.323065 -23.962343 10.092019 -9.378268 -11.341214 5.301706 22.870366 8.372290 4.660121 59.690807 5.667232 16.806902 -6.150677 24.149951 4.746311 6.885472 11.020133 1.063114 
0.031978 0.377758 1.015472 179.771234 -1.149026 89.944574 3.989574 1.652573 3.083792 -3.699465 -4.523585 -0.517300 3.164924 10.281476 -13.112208 0.000000 -0.000000 0.000000 -4.860886 -2.087243 -1.130673 2.222429 0.953010 5.736100 7.842722 -3.083433 -1.334277 0.000000 -0.000000 0.000000 -1.980658 1.655792 0.164791 2.037266 -2.969031 6.770299 0.842446 -0.107714 -5.197405 -0.811066 2.847693 -2.180474 2.567352 0.453007 -2.255679 -21.767056 -2.645182 1.495722 -62.784796 -4.173388 16.671003 4.964837 -24.294109 10.076108 -9.229126 -11.308409 5.248680 22.913954 8.204000 4.581050 59.396473 5.488989 16.675162 -5.977789 24.255906 4.711149 6.896319 11.077084 1.283904 
0.031686 0.378749 1.015456 179.670317 -1.178679 89.864604 3.938084 1.757762 3.336775 -3.692569 -4.513375 -0.672124 3.182444 10.341917 -13.112507 0.000000 -0.000000 0.000000 -4.921909 -2.102732 -0.980209 2.215873 1.031000 5.710873 7.871941 -2.979611 -1.354164 0.000000 -0.000000 0.000000 -2.079744 1.701228 0.089224 2.098698 -2.906031 6.979266 0.908859 -0.053348 -5.215289 -0.743757 2.758266 -2.223522 2.548585 0.393349 -2.526695 -21.793307 -2.460603 1.562611 -62.694132 -3.838651 16.609273 4.559259 -24.813564 10.291969 -9.175245 -11.377568 5.158733 22.992445 8.120339 4.524373 59.027780 5.365322 16.590477 -5.757090 24.417965 4.738849 6.867685 11.073410 1.374013 
0.031249 0.379204 1.015343 179.815812 -1.159818 89.847388 3.942912 1.653545 3.332005 -3.706426 -4.501570 -0.620044 3.132518 10.265844 -13.183247 0.000000 -0.000000 0.000000 -4.940375 -2.155710 -0.917088 2.237435 0.967188 5.735893 7.884347 -2.972218 -1.400840 0.000000 -0.000000 0.000000 -2.067957 1.735970 0.114460 2.154119 -2.909345 6.967431 0.954298 -0.085986 -5.198865 -0.652662 2.675903 -2.356243 2.527829 0.234478 -2.499495 -21.736889 -2.387521 1.626209 -62.736817 -3.669473 16.643678 4.196206 -25.417947 10.632071 -8.962656 -11.471951 5.225815 22.980034 8.064674 4.514157 58.842519 5.358446 16.513354 -5.718992 24.438734 4.770162 6.819908 11.029864 1.451062 
0.030825 0.379859 1.015254 179.902024 -1.165079 89.800409 3.931756 1.584129 3.409196 -3.738721 -4.514332 -0.616693 3.160391 10.254536 -13.224647 0.000000 -0.000000 0.000000 -4.986999 -2.210123 -0.816385 2.260707 0.987115 5.741652 7.922616 -2.954279 -1.491712 0.000000 -0.000000 0.000000 -2.057737 1.770665 0.131021 2.183888 -2.925942 6.997497 0.953994 -0.051998 -5.242428 -0.569249 2.498387 -2.325060 2.624924 0.093917 -2.473008 -21.687741 -2.428873 1.670129 -62.599114 -3.642688 16.818701 3.668725 -25.924280 11.257026 -9.000904 -11.519610 5.234685 22.959735 8.129518 4.509528 58.743159 5.421969 16.522851 -5.640092 24.325726 4.802236 6.844192 11.104257 1.385295 
0.030508 0.380597 1.015219 179.943161 -1.175942 89.808936 3.911702 1.608400 3.479095 -3.744660 -4.495068 -0.679027 3.148071 10.182882 -13.261820 0.000000 -0.000000 0.000000 -5.006094 -2.209062 -0.765312 2.228895 0.920341 5.717923 7.913371 -2.967614 -1.450606 0.000000 -0.000000 0.000000 -2.060744 1.797419 0.032286 2.218976 -2.909307 7.081646 0.946718 -0.017198 -5.282177 -0.462571 2.418997 -2.247933 2.644644 -0.067335 -2.464793 -21.666274 -2.609800 1.676820 -62.495790 -3.753373 17.051879 3.217699 -26.124576 11.907981 -9.326282 -11.598816 5.530301 22.990549 8.241046 4.523190 58.730069 5.589996 16.525936 -5.719945 24.251824 4.787705 7.014822 10.994508 1.410689 
0.030184 0.381228 1.015122 179.984607 -1.204454 89.842010 3.856908 1.659247 3.540138 -3.721923 -4.542504 -0.798283 3.130475 10.152531 -13.234996 0.000000 -0.000000 0.000000 -5.022109 -2.217526 -0.790560 2.176950 0.891655 5.783189 7.852227 -2.968101 -1.573153 0.000000 -0.000000 0.000000 -2.076981 1.824874 -0.100330 2.250730 -2.896887 7.253044 0.931909 0.010290 -5.433126 -0.416407 2.349959 -2.233520 2.682425 -0.195025 -2.434402 -21.689960 -2.839554 1.627597 -62.404262 -4.047900 17.212884 2.856691 -26.157697 12.194337 -9.518168 -11.678247 5.733698 23.012174 8.432014 4.556340 58.744496 5.646990 16.601727 -5.692459 24.369352 4.763470 7.044794 11.191354 1.532955 
0.029909 0.381015 1.015063 -179.754140 -1.133651 89.923736 3.939586 1.509673 3.288775 -3.761089 -4.549821 -0.609826 3.156115 10.065666 -13.273139 0.000000 -0.000000 0.000000 -4.918408 -2.163164 -0.868194 2.152325 0.789857 5.806324 7.772769 -3.117182 -1.655813 0.000000 -0.000000 0.000000 -1.912259 1.734186 0.115032 2.245328 -2.978863 6.860939 0.909896 -0.025403 -5.388067 -0.405084 2.265692 -2.349589 2.626157 -0.198572 -2.242349 -21.695451 -2.979137 1.537007 -62.504525 -4.302657 17.361985 2.836258 -26.376098 12.317114 -9.565093 -11.731674 5.508498 22.902521 8.480512 4.472292 58.984885 5.840024 16.714985 -5.728146 24.514808 4.806314 7.411248 11.060794 1.163959 
0.029841 0.380734 1.014870 -179.354608 -1.050528 89.974370 4.078413 1.269482 3.037503 -3.825903 -4.560892 -0.423243 3.057664 9.930998 -13.258966 0.000000 -0.000000 0.000000 -4.801927 -2.221898 -0.869773 2.157086 0.609187 5.785815 7.677893 -3.329578 -1.745489 0.000000 -0.000000 0.000000 -1.744575 1.681479 0.329989 2.207830 -3.112237 6.529451 0.894754 -0.133507 -5.271514 -0.375445 2.240423 -2.630465 2.614079 -0.224068 -2.027482 -21.913384 -3.210998 1.604220 -62.303513 -4.816265 17.238932 2.824299 -26.633082 12.414539 -9.672123 -11.884526 5.378831 22.950807 8.571495 4.458477 59.072171 6.033189 16.709512 -5.823932 24.928403 4.857035 6.931739 11.086619 1.217038 
